<svg height="448pt" viewBox="-24 0 448 448" width="448pt" xmlns="http://www.w3.org/2000/svg"><path d="m288 88h80v48h-80zm0 0"/><path d="m272 0h112v16h-112zm0 0"/><path d="m288 32h80v40h-80zm0 0"/><path d="m288 376c0 22.089844 17.910156 40 40 40s40-17.910156 40-40v-176h-80zm0 0"/><path d="m48 200h-16v176c0 22.089844 17.910156 40 40 40s40-17.910156 40-40v-176h-48l.136719 160h-16zm0 0"/><path d="m176.046875 200h-16.046875v176c0 22.089844 17.910156 40 40 40s40-17.910156 40-40v-176h-47.953125l.992187 159.953125-16 .09375zm0 0"/><path d="m16 152h368v32h-368zm0 0"/><path d="m0 368v80h400v-80h-16v8c0 30.929688-25.070312 56-56 56s-56-25.070312-56-56v-8h-16v8c0 30.929688-25.070312 56-56 56s-56-25.070312-56-56v-8h-16v8c0 30.929688-25.070312 56-56 56s-56-25.070312-56-56v-8zm0 0"/><path d="m144 0h112v16h-112zm0 0"/><path d="m16 0h112v16h-112zm0 0"/><path d="m48.144531 104 16 .0625-.144531 31.9375h48v-104h-80v104h16zm-.144531-32h16v16h-16zm0 0"/><path d="m160 32h80v72h-80zm0 0"/><path d="m192 120h48v16h-48zm0 0"/><path d="m160 120h16v16h-16zm0 0"/></svg>