<svg height="480pt" viewBox="0 0 480 480.00222" width="480pt" xmlns="http://www.w3.org/2000/svg"><path d="m216 176h-24v-24c0-4.417969-3.582031-8-8-8h-32c-4.417969 0-8 3.582031-8 8v24h-24c-4.417969 0-8 3.582031-8 8v32c0 4.417969 3.582031 8 8 8h24v24c0 4.417969 3.582031 8 8 8h32c4.417969 0 8-3.582031 8-8v-24h24c4.417969 0 8-3.582031 8-8v-32c0-4.417969-3.582031-8-8-8zm-8 32h-24c-4.417969 0-8 3.582031-8 8v24h-16v-24c0-4.417969-3.582031-8-8-8h-24v-16h24c4.417969 0 8-3.582031 8-8v-24h16v24c0 4.417969 3.582031 8 8 8h24zm0 0"/><path d="m472 240c-44.003906.121094-86.226562-17.367188-117.253906-48.566406l-5.089844-5.089844c-3.125-3.121094-8.1875-3.121094-11.3125 0l-2.34375 2.34375v-84.6875c-.023438-22.082031-17.917969-39.972656-40-40h-56v-24c-.023438-22.082031-17.917969-39.9726562-40-40h-64c-22.078125.0273438-39.972656 17.917969-40 40v24h-56c-22.078125.027344-39.9726562 17.917969-40 40v160c0 13.253906 10.746094 24 24 24h186.402344c10.976562 80.4375 58.960937 151.105469 129.679687 190.976562 2.433594 1.367188 5.40625 1.367188 7.839844 0 81.539063-45.941406 132.011719-132.242187 132.078125-225.832031v-5.144531c0-4.417969-3.582031-8-8-8zm-360-200c0-13.253906 10.746094-24 24-24h64c13.257812 0 24 10.746094 24 24v24h-16v-24c0-4.417969-3.582031-8-8-8h-64c-4.417969 0-8 3.582031-8 8v24h-16zm80 8v16h-48v-16zm-176 56c0-13.253906 10.746094-24 24-24h256c13.257812 0 24 10.746094 24 24v8h-304zm192 144v5.144531c0 6.320313.273438 12.609375.738281 18.855469h-184.738281c-4.417969 0-8-3.582031-8-8v-136h304v75.289062c-29.410156 23.835938-66.140625 36.800782-104 36.710938-4.417969 0-8 3.582031-8 8zm136 214.777344c-73.472656-43.214844-118.992188-121.710938-120-206.945313 45.167969-1.863281 87.988281-20.605469 120-52.519531 32.015625 31.914062 74.835938 50.65625 120 52.519531-1.003906 85.234375-46.523438 163.730469-120 206.945313zm0 0"/><path d="m335.601562 284.289062c-16.378906-16.378906-42.933593-16.378906-59.3125 0-16.378906 16.378907-16.378906 42.933594 0 59.3125l62.054688 62.054688c3.125 3.121094 8.1875 3.121094 11.3125 0l62.058594-62.054688c16.375-16.378906 16.375-42.933593 0-59.3125-16.378906-16.378906-42.933594-16.378906-59.3125 0l-8.402344 8.398438zm28.113282 11.3125c6.527344-6.679687 16.140625-9.332031 25.171875-6.949218 9.027343 2.382812 16.082031 9.433594 18.464843 18.464844 2.382813 9.027343-.273437 18.640624-6.949218 25.171874l-56.402344 56.398438-56.398438-56.398438c-6.679687-6.53125-9.332031-16.144531-6.949218-25.171874 2.382812-9.03125 9.433594-16.082032 18.464844-18.464844 9.03125-2.382813 18.644531.269531 25.171874 6.949218l14.054688 14.054688c3.125 3.121094 8.1875 3.121094 11.3125 0zm0 0"/></svg>