<svg height="496pt" viewBox="0 0 496 496" width="496pt" xmlns="http://www.w3.org/2000/svg"><path d="m144 32h16v16h-16zm0 0"/><path d="m208 32h16v16h-16zm0 0"/><path d="m214.894531 220.679688c10.441407-8.808594 17.105469-21.976563 17.105469-36.679688v-24c0-26.472656-21.527344-48-48-48s-48 21.527344-48 48v24c0 14.703125 6.664062 27.871094 17.105469 36.679688-42.304688 13.191406-73.105469 52.726562-73.105469 99.320312v16h208v-16c0-46.59375-30.800781-86.128906-73.105469-99.320312zm-62.894531-36.679688v-24c0-17.648438 14.351562-32 32-32s32 14.351562 32 32v24c0 17.648438-14.351562 32-32 32s-32-14.351562-32-32zm-56 136c0-48.519531 39.480469-88 88-88s88 39.480469 88 88zm0 0"/><path d="m80 352h208v16h-208zm0 0"/><path d="m272 416h16v16h-16zm0 0"/><path d="m80 416h176v16h-176zm0 0"/><path d="m80 384h96v16h-96zm0 0"/><path d="m192 384h96v16h-96zm0 0"/><path d="m383.273438 337.488281 8.390624 13.625c44.617188-27.464843 72.335938-77.074219 72.335938-129.464843v-5.648438h-16v5.648438c0 46.878906-24.808594 91.261718-64.726562 115.839843zm0 0"/><path d="m448 184h16v16h-16zm0 0"/><path d="m360 184v24h-24v48h24v24h48v-24h24v-48h-24v-24zm56 40v16h-24v24h-16v-24h-24v-16h24v-24h16v24zm0 0"/><path d="m384.121094 103.246094-16.121094 6.90625v-78.152344h-96v-16c0-8.824219-7.175781-16-16-16h-144c-8.824219 0-16 7.175781-16 16v16h-96v464h368v-112.457031l16 9.847656 24.441406-15.039063c54.007813-33.230468 87.558594-93.28125 87.558594-156.695312v-66.777344zm-32.121094-55.246094v69.007812l-16 6.855469v-59.863281h-64v-16zm-336 432v-432h80v16h-64v400h304v-103.046875c5.089844 4.40625 10.40625 8.550781 16 12.398437v106.648438zm464-258.34375c0 57.902344-30.632812 112.726562-79.953125 143.078125l-16.046875 9.875-16.046875-9.875c-49.320313-30.359375-79.953125-85.183594-79.953125-143.078125v-56.535156l19.351562-8.9375-6.703124-14.519532-28.648438 13.214844v66.769532c0 45.984374 17.710938 90.136718 48 123.648437v102.703125h-272v-368h192v-16h-128v-48h144v64h64v68.136719l63.878906-27.375 96.121094 44.359375zm0 0"/></svg>